<svg width="40" height="40" viewBox="0 0 40 40" fill="none" xmlns="http://www.w3.org/2000/svg">
<path d="M19.9999 20.2C20.3313 20.2 20.5999 19.9314 20.5999 19.6C20.5999 19.2686 20.3313 19 19.9999 19C19.6685 19 19.3999 19.2686 19.3999 19.6C19.3999 19.9314 19.6685 20.2 19.9999 20.2Z" stroke="#424242" stroke-width="1.2" stroke-linecap="round" stroke-linejoin="round"/>
<path d="M26.9999 20.2C27.3313 20.2 27.5999 19.9314 27.5999 19.6C27.5999 19.2686 27.3313 19 26.9999 19C26.6685 19 26.3999 19.2686 26.3999 19.6C26.3999 19.9314 26.6685 20.2 26.9999 20.2Z" stroke="#424242" stroke-width="1.2" stroke-linecap="round" stroke-linejoin="round"/>
<path d="M12.9999 20.2C13.3313 20.2 13.5999 19.9314 13.5999 19.6C13.5999 19.2686 13.3313 19 12.9999 19C12.6685 19 12.3999 19.2686 12.3999 19.6C12.3999 19.9314 12.6685 20.2 12.9999 20.2Z" stroke="#424242" stroke-width="1.2" stroke-linecap="round" stroke-linejoin="round"/>
</svg>
