<svg width="32" height="32" viewBox="0 0 32 32" fill="none" xmlns="http://www.w3.org/2000/svg">
<path d="M21.1566 11.6893C20.8586 11.3912 20.5049 11.1547 20.1155 10.9934C19.7262 10.8321 19.3089 10.749 18.8874 10.749C18.466 10.749 18.0486 10.8321 17.6593 10.9934C17.2699 11.1547 16.9162 11.3912 16.6182 11.6893L15.9999 12.3076L15.3816 11.6893C14.7798 11.0874 13.9635 10.7493 13.1124 10.7493C12.2613 10.7493 11.4451 11.0874 10.8432 11.6893C10.2414 12.2911 9.90332 13.1073 9.90332 13.9584C9.90332 14.8095 10.2414 15.6258 10.8432 16.2276L11.4616 16.8459L15.9999 21.3843L20.5382 16.8459L21.1566 16.2276C21.4547 15.9296 21.6911 15.5759 21.8524 15.1865C22.0138 14.7972 22.0968 14.3799 22.0968 13.9584C22.0968 13.537 22.0138 13.1196 21.8524 12.7303C21.6911 12.3409 21.4547 11.9872 21.1566 11.6893Z" fill="#DE0C0C" stroke="#DE0C0C" stroke-width="1.2" stroke-linecap="round" stroke-linejoin="round"/>
</svg>
