<svg width="32" height="32" viewBox="0 0 32 32" fill="none" xmlns="http://www.w3.org/2000/svg">
<path d="M21.1566 11.6891C20.8586 11.3911 20.5049 11.1546 20.1155 10.9933C19.7262 10.8319 19.3089 10.7489 18.8874 10.7489C18.466 10.7489 18.0486 10.8319 17.6593 10.9933C17.2699 11.1546 16.9162 11.3911 16.6182 11.6891L15.9999 12.3075L15.3816 11.6891C14.7798 11.0873 13.9635 10.7492 13.1124 10.7492C12.2613 10.7492 11.4451 11.0873 10.8432 11.6891C10.2414 12.291 9.90332 13.1072 9.90332 13.9583C9.90332 14.8094 10.2414 15.6256 10.8432 16.2275L11.4616 16.8458L15.9999 21.3841L20.5382 16.8458L21.1566 16.2275C21.4547 15.9295 21.6911 15.5758 21.8524 15.1864C22.0138 14.7971 22.0968 14.3798 22.0968 13.9583C22.0968 13.5368 22.0138 13.1195 21.8524 12.7302C21.6911 12.3408 21.4547 11.9871 21.1566 11.6891Z" stroke="#616161" stroke-width="1.2" stroke-linecap="round" stroke-linejoin="round"/>
</svg>
