<svg width="24" height="24" viewBox="0 0 24 24" fill="none" xmlns="http://www.w3.org/2000/svg">
<g id="more-horizontal">
<path id="Vector" d="M11.9999 12.2C12.3313 12.2 12.5999 11.9314 12.5999 11.6C12.5999 11.2686 12.3313 11 11.9999 11C11.6685 11 11.3999 11.2686 11.3999 11.6C11.3999 11.9314 11.6685 12.2 11.9999 12.2Z" stroke="#424242" stroke-width="1.2" stroke-linecap="round" stroke-linejoin="round"/>
<path id="Vector_2" d="M18.9999 12.2C19.3313 12.2 19.5999 11.9314 19.5999 11.6C19.5999 11.2686 19.3313 11 18.9999 11C18.6685 11 18.3999 11.2686 18.3999 11.6C18.3999 11.9314 18.6685 12.2 18.9999 12.2Z" stroke="#424242" stroke-width="1.2" stroke-linecap="round" stroke-linejoin="round"/>
<path id="Vector_3" d="M4.9999 12.2C5.33127 12.2 5.5999 11.9314 5.5999 11.6C5.5999 11.2686 5.33127 11 4.9999 11C4.66853 11 4.3999 11.2686 4.3999 11.6C4.3999 11.9314 4.66853 12.2 4.9999 12.2Z" stroke="#424242" stroke-width="1.2" stroke-linecap="round" stroke-linejoin="round"/>
</g>
</svg>
