<svg width="22" height="22" viewBox="0 0 22 22" fill="none" xmlns="http://www.w3.org/2000/svg">
<path fill-rule="evenodd" clip-rule="evenodd" d="M10.9998 3.78095C9.38659 3.78095 8.0788 5.08874 8.0788 6.70198C8.0788 8.31522 9.38659 9.62301 10.9998 9.62301C12.6131 9.62301 13.9209 8.31522 13.9209 6.70198C13.9209 5.08874 12.6131 3.78095 10.9998 3.78095ZM7.04785 6.70198C7.04785 4.51936 8.81721 2.75 10.9998 2.75C13.1825 2.75 14.9518 4.51936 14.9518 6.70198C14.9518 8.8846 13.1825 10.654 10.9998 10.654C8.81721 10.654 7.04785 8.8846 7.04785 6.70198Z" fill="white"/>
<path fill-rule="evenodd" clip-rule="evenodd" d="M4.9117 14.2035C4.90046 12.7275 6.09389 11.5249 7.56996 11.5249H14.4303C15.9064 11.5249 17.0998 12.7275 17.0886 14.2035L17.0501 19.254L15.9502 19.2456L15.9886 14.1951C15.9952 13.3298 15.2956 12.6249 14.4303 12.6249H7.56996C6.70467 12.6249 6.00508 13.3298 6.01167 14.1951L6.05012 19.2456L4.95016 19.254L4.9117 14.2035Z" fill="white"/>
</svg>
