<svg width="24" height="24" viewBox="0 0 24 24" fill="none" xmlns="http://www.w3.org/2000/svg">
<g id="user">
<path id="Vector (Stroke)" fill-rule="evenodd" clip-rule="evenodd" d="M11.9997 4.12468C10.2398 4.12468 8.81315 5.55135 8.81315 7.31125C8.81315 9.07115 10.2398 10.4978 11.9997 10.4978C13.7596 10.4978 15.1863 9.07115 15.1863 7.31125C15.1863 5.55135 13.7596 4.12468 11.9997 4.12468ZM7.68848 7.31125C7.68848 4.93021 9.61869 3 11.9997 3C14.3808 3 16.311 4.93021 16.311 7.31125C16.311 9.69229 14.3808 11.6225 11.9997 11.6225C9.61869 11.6225 7.68848 9.69229 7.68848 7.31125Z" fill="#424242"/>
<path id="Rectangle 3528 (Stroke)" fill-rule="evenodd" clip-rule="evenodd" d="M5.358 15.4948C5.34574 13.8846 6.64766 12.5728 8.25791 12.5728H15.742C17.3522 12.5728 18.6541 13.8846 18.6419 15.4948L18.5999 21.0045L17.3999 20.9953L17.4419 15.4857C17.4491 14.5418 16.6859 13.7728 15.742 13.7728H8.25791C7.31397 13.7728 6.55077 14.5418 6.55796 15.4857L6.59991 20.9953L5.39995 21.0045L5.358 15.4948Z" fill="#424242"/>
</g>
</svg>
